<?xml version="1.0" encoding="UTF-8"?>
<!-- Generator: Blender, SVG Export for Grease Pencil - v1.0 -->
<!DOCTYPE svg PUBLIC "-//W3C//DTD SVG 1.1//EN" "http://www.w3.org/Graphics/SVG/1.1/DTD/svg11.dtd">
<svg version="1.0" x="0px" y="0px" xmlns="http://www.w3.org/2000/svg" width="147px" height="208px" viewBox="0 0 147 208">
	<g id="blender_frame_1">
		<g id="blender_object_Stroke">
			<!--Layer: 0-->
			<g id="0">
				<polygon fill="#000000" stroke="none" fill-opacity="1" points="137.778320,10.000000 10.000000,51.407471 48.030884,101.972168 27.260742,154.255859 84.128174,198.732544 133.976685,114.505859 100.142151,90.267334" />
				<polygon stroke="#FEFEFE" stroke-opacity="1" fill="none" stroke-linecap="round" stroke-width="12.2739258" points="137.778320,10.000000 10.000000,51.407471 48.030884,101.972168 27.260742,154.255859 84.128174,198.732544 133.976685,114.505859 100.142151,90.267334" />
				<polygon fill="#000000" stroke="none" fill-opacity="1" points="55.192871,67.952026 74.116333,88.209839 93.367310,48.900635" />
				<polygon stroke="#FEFEFE" stroke-opacity="1" fill="none" stroke-linecap="round" stroke-width="12.2741699" points="55.192871,67.952026 74.116333,88.209839 93.367310,48.900635" />
				<polygon fill="#000000" stroke="none" fill-opacity="1" points="72.233032,114.207397 63.071472,137.066650 74.723083,160.907227 98.165894,126.323364" />
				<polygon stroke="#FEFEFE" stroke-opacity="1" fill="none" stroke-linecap="round" stroke-width="12.2739258" points="72.233032,114.207397 63.071472,137.066650 74.723083,160.907227 98.165894,126.323364" />
			</g>
		</g>
	</g>
</svg>
