<?xml version="1.0" encoding="UTF-8"?>
<!-- Generator: Blender, SVG Export for Grease Pencil - v1.0 -->
<!DOCTYPE svg PUBLIC "-//W3C//DTD SVG 1.1//EN" "http://www.w3.org/Graphics/SVG/1.1/DTD/svg11.dtd">
<svg version="1.0" x="0px" y="0px" xmlns="http://www.w3.org/2000/svg" width="145px" height="147px" viewBox="0 0 145 147">
	<g id="blender_frame_1">
		<g id="blender_object_Stroke">
			<!--Layer: 0-->
			<g id="0">
				<polygon fill="#000000" stroke="none" fill-opacity="1" points="44.311035,11.052490 19.261963,118.615845 41.574463,128.509033 68.097046,10.000000" />
				<polygon stroke="#FEFEFE" stroke-opacity="1" fill="none" stroke-linecap="round" stroke-width="8.20043945" points="44.311035,11.052490 19.261963,118.615845 41.574463,128.509033 68.097046,10.000000" />
				<polygon fill="#000000" stroke="none" fill-opacity="1" points="24.945312,39.890381 125.983276,51.678101 121.773315,77.148071 24.945312,57.151123" />
				<polygon stroke="#FEFEFE" stroke-opacity="1" fill="none" stroke-linecap="round" stroke-width="8.20043945" points="24.945312,39.890381 125.983276,51.678101 121.773315,77.148071 24.945312,57.151123" />
				<polygon fill="#000000" stroke="none" fill-opacity="1" points="10.000000,73.569580 135.665894,99.460571 132.298096,124.509644 11.684082,95.461304" />
				<polygon stroke="#FEFEFE" stroke-opacity="1" fill="none" stroke-linecap="round" stroke-width="8.20043945" points="10.000000,73.569580 135.665894,99.460571 132.298096,124.509644 11.684082,95.461304" />
				<polygon fill="#000000" stroke="none" fill-opacity="1" points="98.197754,16.104370 81.568726,125.772583 101.986694,137.139282 119.247314,18.630371" />
				<polygon stroke="#FEFEFE" stroke-opacity="1" fill="none" stroke-linecap="round" stroke-width="8.20068359" points="98.197754,16.104370 81.568726,125.772583 101.986694,137.139282 119.247314,18.630371" />
			</g>
		</g>
	</g>
</svg>
