<?xml version="1.0" encoding="UTF-8"?>
<!-- Generator: Blender, SVG Export for Grease Pencil - v1.0 -->
<!DOCTYPE svg PUBLIC "-//W3C//DTD SVG 1.1//EN" "http://www.w3.org/Graphics/SVG/1.1/DTD/svg11.dtd">
<svg version="1.0" x="0px" y="0px" xmlns="http://www.w3.org/2000/svg" width="159px" height="270px" viewBox="0 0 159 270">
	<g id="blender_frame_1">
		<g id="blender_object_Stroke">
			<!--Layer: 0-->
			<g id="0">
				<polygon fill="#000000" stroke="none" fill-opacity="1" points="55.227905,15.527466 12.405151,55.513794 19.332031,120.498047 45.858765,139.328674 22.516479,178.874695 32.486572,219.896240 118.718140,260.016602 149.219849,214.120361 142.811646,157.133972 118.105103,129.208923 132.959106,96.369263 130.427734,40.534668" />
				<polygon fill="#000000" stroke="none" fill-opacity="1" points="55.227905,15.527466 12.405151,55.513794 19.332031,120.498047 45.858765,139.328674 22.516479,178.874695 32.486572,219.896240 118.718140,260.016602 149.219849,214.120361 142.811646,157.133972 118.105103,129.208923 132.959106,96.369263 130.427734,40.534668" />
				<polyline stroke="#FEFEFE" stroke-opacity="1" fill="none" stroke-linecap="round" stroke-width="15.1188965" points="80.179321,73.065552 82.442993,109.241821 115.303955,134.322937 132.635742,99.744568 135.685425,47.280151 55.809082,10.000000 10.000000,55.773926 15.873535,112.879761 80.392578,173.240906 77.427979,193.923706" />
				<polyline stroke="#FEFEFE" stroke-opacity="1" fill="none" stroke-linecap="round" stroke-width="15.1186523" points="115.303955,134.322937 143.443970,159.902466 148.749268,212.362732 114.007568,258.857422 27.317139,214.153564 21.874390,174.352173 44.546387,140.273682" />
			</g>
		</g>
	</g>
</svg>
