<?xml version="1.0" encoding="UTF-8"?>
<!-- Generator: Blender, SVG Export for Grease Pencil - v1.0 -->
<!DOCTYPE svg PUBLIC "-//W3C//DTD SVG 1.1//EN" "http://www.w3.org/Graphics/SVG/1.1/DTD/svg11.dtd">
<svg version="1.0" x="0px" y="0px" xmlns="http://www.w3.org/2000/svg" width="132px" height="142px" viewBox="0 0 132 142">
	<g id="blender_frame_1">
		<g id="blender_object_Stroke">
			<!--Layer: 0-->
			<g id="0">
				<polygon fill="#000000" stroke="none" fill-opacity="1" points="68.938721,10.000000 20.875488,52.625244 41.398926,79.112671 10.000000,95.601440 62.448486,132.438232 83.673340,117.177368 117.352783,116.475708 94.373535,100.337646 122.088867,67.359985 81.568604,83.498047" />
				<polygon stroke="#FEFEFE" stroke-opacity="1" fill="none" stroke-linecap="round" stroke-width="8.20068359" points="68.938721,10.000000 20.875488,52.625244 41.398926,79.112671 10.000000,95.601440 62.448486,132.438232 83.673340,117.177368 117.352783,116.475708 94.373535,100.337646 122.088867,67.359985 81.568604,83.498047" />
				<polygon fill="#000000" stroke="none" fill-opacity="1" points="52.274414,45.257935 44.030029,61.746826 63.851807,68.938721" />
				<polygon stroke="#FEFEFE" stroke-opacity="1" fill="none" stroke-linecap="round" stroke-width="8.20043945" points="52.274414,45.257935 44.030029,61.746826 63.851807,68.938721" />
				<polygon fill="#000000" stroke="none" fill-opacity="1" points="43.854736,101.214722 54.116211,111.037964 72.271729,108.406738 55.958008,89.462158" />
				<polygon stroke="#FEFEFE" stroke-opacity="1" fill="none" stroke-linecap="round" stroke-width="8.20068359" points="43.854736,101.214722 54.116211,111.037964 72.271729,108.406738 55.958008,89.462158" />
			</g>
		</g>
	</g>
</svg>
