<?xml version="1.0" encoding="UTF-8"?>
<!-- Generator: Blender, SVG Export for Grease Pencil - v1.0 -->
<!DOCTYPE svg PUBLIC "-//W3C//DTD SVG 1.1//EN" "http://www.w3.org/Graphics/SVG/1.1/DTD/svg11.dtd">
<svg version="1.0" x="0px" y="0px" xmlns="http://www.w3.org/2000/svg" width="2564px" height="1258px" viewBox="0 0 2564 1258">
	<g id="blender_frame_1">
		<g id="blender_object_Stroke">
			<!--Layer: 1-->
			<g id="1">
				<polygon fill="#FEFEFE" stroke="none" fill-opacity="1" points="125.029724,30.316406 103.300537,525.408081 475.339478,461.218628 319.358276,264.073853 413.379761,106.358032" />
				<polygon stroke="#000000" stroke-opacity="1" fill="none" stroke-linecap="round" stroke-width="15.6567383" points="125.029724,30.316406 103.300537,525.408081 475.339478,461.218628 319.358276,264.073853 413.379761,106.358032" />
				<polygon fill="#FE00FE" stroke="none" fill-opacity="1" points="189.456543,203.831787 231.347168,111.521362 309.232117,181.999634" />
				<polygon stroke="#000000" stroke-opacity="1" fill="none" stroke-linecap="round" stroke-width="15.6567383" points="189.456543,203.831787 231.347168,111.521362 309.232117,181.999634" />
				<polygon fill="#FE00FE" stroke="none" fill-opacity="1" points="184.407776,369.687134 282.198059,441.073975 328.977966,349.394165" />
				<polygon stroke="#000000" stroke-opacity="1" fill="none" stroke-linecap="round" stroke-width="15.6567383" points="184.407776,369.687134 282.198059,441.073975 328.977966,349.394165" />
				<polygon fill="#FEFEFE" stroke="none" fill-opacity="1" points="476.853210,447.507935 543.819824,399.405273 647.570862,528.622375 790.935974,537.111145 572.115540,133.896729 419.790283,383.842529" />
				<polygon stroke="#000000" stroke-opacity="1" fill="none" stroke-linecap="round" stroke-width="15.6567383" points="476.853210,447.507935 543.819824,399.405273 647.570862,528.622375 790.935974,537.111145 572.115540,133.896729 419.790283,383.842529" />
				<polygon fill="#FE00FE" stroke="none" fill-opacity="1" points="531.558411,289.523438 561.268921,353.188843 606.070435,294.239380" />
				<polygon stroke="#000000" stroke-opacity="1" fill="none" stroke-linecap="round" stroke-width="15.6569824" points="531.558411,289.523438 561.268921,353.188843 606.070435,294.239380" />
				<polygon fill="#FEFEFE" stroke="none" fill-opacity="1" points="687.656555,345.643311 655.846863,96.340210 852.030823,234.517822 870.349304,349.311157 724.912537,413.081421" />
				<polygon stroke="#000000" stroke-opacity="1" fill="none" stroke-linecap="round" stroke-width="15.6569824" points="687.656555,345.643311 655.846863,96.340210 852.030823,234.517822 870.349304,349.311157 724.912537,413.081421" />
				<polygon fill="#FEFEFE" stroke="none" fill-opacity="1" points="920.160706,405.185059 855.725525,458.743286 936.666565,481.583557" />
				<polygon stroke="#000000" stroke-opacity="1" fill="none" stroke-linecap="round" stroke-width="15.6567383" points="920.160706,405.185059 855.725525,458.743286 936.666565,481.583557" />
				<polygon fill="#FE00FE" stroke="none" fill-opacity="1" points="762.427551,239.705200 770.822937,335.102539 832.223816,275.090576" />
				<polygon stroke="#000000" stroke-opacity="1" fill="none" stroke-linecap="round" stroke-width="15.6567383" points="762.427551,239.705200 770.822937,335.102539 832.223816,275.090576" />
				<polygon fill="#FEFEFE" stroke="none" fill-opacity="1" points="1010.707092,408.486206 981.468079,472.623230 1067.298584,450.458252" />
				<polygon stroke="#000000" stroke-opacity="1" fill="none" stroke-linecap="round" stroke-width="15.6567383" points="1010.707092,408.486206 981.468079,472.623230 1067.298584,450.458252" />
				<polygon fill="#FEFEFE" stroke="none" fill-opacity="1" points="1083.027344,414.190552 1131.907227,460.833374 1147.469727,401.412231" />
				<polygon stroke="#000000" stroke-opacity="1" fill="none" stroke-linecap="round" stroke-width="15.6567383" points="1083.027344,414.190552 1131.907227,460.833374 1147.469727,401.412231" />
				<polygon fill="#FEFEFE" stroke="none" fill-opacity="1" points="1356.907227,500.429321 1389.406982,110.000122 1597.740234,375.833374 1606.073730,93.333374 1728.573486,307.500000 1681.906982,560.833313 1461.073730,365.000000 1483.573730,586.666626" />
				<polygon stroke="#000000" stroke-opacity="1" fill="none" stroke-linecap="round" stroke-width="15.6568604" points="1356.907227,500.429321 1389.406982,110.000122 1597.740234,375.833374 1606.073730,93.333374 1728.573486,307.500000 1681.906982,560.833313 1461.073730,365.000000 1483.573730,586.666626" />
				<polygon fill="#FEFEFE" stroke="none" fill-opacity="1" points="1784.406982,300.833374 1783.240479,531.000000 1881.073730,471.666687 1880.240234,286.666626" />
				<polygon stroke="#000000" stroke-opacity="1" fill="none" stroke-linecap="round" stroke-width="15.6569824" points="1784.406982,300.833374 1783.240479,531.000000 1881.073730,471.666687 1880.240234,286.666626" />
				<polygon fill="#FEFEFE" stroke="none" fill-opacity="1" points="1756.906982,146.666748 1836.906982,215.000000 1878.573486,85.000122" />
				<polygon stroke="#000000" stroke-opacity="1" fill="none" stroke-linecap="round" stroke-width="15.6569824" points="1756.906982,146.666748 1836.906982,215.000000 1878.573486,85.000122" />
				<polygon fill="#FEFEFE" stroke="none" fill-opacity="1" points="2036.073486,108.333374 1893.041260,205.092651 1939.406982,436.666748 2083.573486,521.666687 2173.573486,407.500000 2080.240234,390.000000 2001.147705,241.403442 2114.406738,163.333374" />
				<polygon stroke="#000000" stroke-opacity="1" fill="none" stroke-linecap="round" stroke-width="15.6569824" points="2036.073486,108.333374 1893.041260,205.092651 1939.406982,436.666748 2083.573486,521.666687 2173.573486,407.500000 2080.240234,390.000000 2001.147705,241.403442 2114.406738,163.333374" />
				<polygon fill="#FEFEFE" stroke="none" fill-opacity="1" points="2202.740234,494.166626 2364.406982,458.333252 2431.906982,488.333313 2480.240234,412.500000 2393.573730,360.000000 2353.990479,389.884277 2255.240479,382.500000 2241.907227,325.833374 2358.240479,296.666748 2287.740479,230.000000 2217.740479,231.666626 2224.152344,165.648193 2372.050537,150.351807 2386.073730,280.000000 2462.740479,296.666626 2532.740234,10.000000 2398.573730,10.000000 2360.240479,70.833252 2141.073730,104.166626" />
				<polygon stroke="#000000" stroke-opacity="1" fill="none" stroke-linecap="round" stroke-width="15.6568604" points="2202.740234,494.166626 2364.406982,458.333252 2431.906982,488.333313 2480.240234,412.500000 2393.573730,360.000000 2353.990479,389.884277 2255.240479,382.500000 2241.907227,325.833374 2358.240479,296.666748 2287.740479,230.000000 2217.740479,231.666626 2224.152344,165.648193 2372.050537,150.351807 2386.073730,280.000000 2462.740479,296.666626 2532.740234,10.000000 2398.573730,10.000000 2360.240479,70.833252 2141.073730,104.166626" />
				<polygon fill="#FEFEFE" stroke="none" fill-opacity="1" points="89.819489,1248.038330 10.000000,833.302246 229.203735,790.885498 200.037170,887.385498 130.833252,894.552246 142.499939,930.802246 248.370361,932.885498 261.870300,843.885498 335.203735,864.718872 375.203613,1070.552246 395.203674,959.718750 374.370300,843.885498 450.203613,864.718750 431.870361,774.718750 649.370300,968.885498 659.370300,851.385498 721.037048,854.718750 690.203674,773.052246 752.703674,763.885498 815.203674,936.385498 911.870178,873.885498 866.036926,784.718750 933.536926,746.385498 1001.870178,827.218750 1028.467529,741.987305 1082.842529,782.218872 1068.536865,690.552246 1136.036865,677.218750 1221.870361,856.385498 1178.536865,906.385498 1088.953613,869.302124 1021.592468,1070.552246 949.370300,1081.385498 962.703674,924.052124 891.870300,978.885498 939.370178,1072.218872 887.587830,1121.107788 837.703552,1047.218872 837.703552,1143.885498 764.370178,1130.552124 732.509216,979.413330 708.536926,1143.885498 566.870239,1006.385498 608.536926,1167.218750 508.536987,1159.718750 464.833252,967.751221 457.703674,1113.885498 351.198975,1176.316162 256.370239,1007.052124 155.166626,1021.135498 198.499878,1154.635620" />
				<polygon stroke="#000000" stroke-opacity="1" fill="none" stroke-linecap="round" stroke-width="15.6569824" points="89.819489,1248.038330 10.000000,833.302246 229.203735,790.885498 200.037170,887.385498 130.833252,894.552246 142.499939,930.802246 248.370361,932.885498 261.870300,843.885498 335.203735,864.718872 375.203613,1070.552246 395.203674,959.718750 374.370300,843.885498 450.203613,864.718750 431.870361,774.718750 649.370300,968.885498 659.370300,851.385498 721.037048,854.718750 690.203674,773.052246 752.703674,763.885498 815.203674,936.385498 911.870178,873.885498 866.036926,784.718750 933.536926,746.385498 1001.870178,827.218750 1028.467529,741.987305 1082.842529,782.218872 1068.536865,690.552246 1136.036865,677.218750 1221.870361,856.385498 1178.536865,906.385498 1088.953613,869.302124 1021.592468,1070.552246 949.370300,1081.385498 962.703674,924.052124 891.870300,978.885498 939.370178,1072.218872 887.587830,1121.107788 837.703552,1047.218872 837.703552,1143.885498 764.370178,1130.552124 732.509216,979.413330 708.536926,1143.885498 566.870239,1006.385498 608.536926,1167.218750 508.536987,1159.718750 464.833252,967.751221 457.703674,1113.885498 351.198975,1176.316162 256.370239,1007.052124 155.166626,1021.135498 198.499878,1154.635620" />
				<polygon fill="#FEFEFE" stroke="none" fill-opacity="1" points="1154.370361,978.052246 1215.876953,1087.458862 1267.623779,929.272217" />
				<polygon stroke="#000000" stroke-opacity="1" fill="none" stroke-linecap="round" stroke-width="15.6572266" points="1154.370361,978.052246 1215.876953,1087.458862 1267.623779,929.272217" />
				<polygon fill="#FEFEFE" stroke="none" fill-opacity="1" points="1675.342285,755.691162 1605.203613,754.996582 1494.786865,791.802246 1473.259033,904.996582 1598.953369,976.524414 1598.259033,1045.968750 1500.342529,1074.093872 1480.203613,1107.774414 1493.397949,1148.746582 1650.342285,1122.357666 1680.897949,947.357666 1580.203613,885.552246 1617.009033,829.302246 1698.953369,838.329956" />
				<polygon stroke="#000000" stroke-opacity="1" fill="none" stroke-linecap="round" stroke-width="15.6572266" points="1675.342285,755.691162 1605.203613,754.996582 1494.786865,791.802246 1473.259033,904.996582 1598.953369,976.524414 1598.259033,1045.968750 1500.342529,1074.093872 1480.203613,1107.774414 1493.397949,1148.746582 1650.342285,1122.357666 1680.897949,947.357666 1580.203613,885.552246 1617.009033,829.302246 1698.953369,838.329956" />
				<polygon fill="#FEFEFE" stroke="none" fill-opacity="1" points="1736.453369,839.024414 1866.314453,868.191040 1865.620117,952.218750 1808.675537,948.052246 1771.870117,1082.079834 1713.536865,1075.829956 1692.009033,1048.052124 1735.064453,933.468750 1671.870117,910.552246" />
				<polygon stroke="#000000" stroke-opacity="1" fill="none" stroke-linecap="round" stroke-width="15.6567383" points="1736.453369,839.024414 1866.314453,868.191040 1865.620117,952.218750 1808.675537,948.052246 1771.870117,1082.079834 1713.536865,1075.829956 1692.009033,1048.052124 1735.064453,933.468750 1671.870117,910.552246" />
				<polygon fill="#FEFEFE" stroke="none" fill-opacity="1" points="1944.092041,1077.913330 1937.842041,1007.079956 1882.980957,1007.079956 1873.258789,950.830078 1944.092041,932.774414 1921.175293,827.218872 1961.453125,775.830078 2037.842041,813.330078 2087.842041,881.385498 2161.453125,886.941162 2185.064453,925.830078 2148.953369,964.024414 2205.203369,1055.691040 2143.397705,1065.413330 2085.758789,1014.718872 2035.064453,1020.274414 2011.453125,1087.635498" />
				<polygon stroke="#000000" stroke-opacity="1" fill="none" stroke-linecap="round" stroke-width="15.6569824" points="1944.092041,1077.913330 1937.842041,1007.079956 1882.980957,1007.079956 1873.258789,950.830078 1944.092041,932.774414 1921.175293,827.218872 1961.453125,775.830078 2037.842041,813.330078 2087.842041,881.385498 2161.453125,886.941162 2185.064453,925.830078 2148.953369,964.024414 2205.203369,1055.691040 2143.397705,1065.413330 2085.758789,1014.718872 2035.064453,1020.274414 2011.453125,1087.635498" />
				<polygon fill="#FE00FE" stroke="none" fill-opacity="1" points="1986.453369,934.864258 1975.342285,875.135498 2026.731201,878.569092 2062.147949,915.413330 2014.230957,916.107788" />
				<polygon stroke="#000000" stroke-opacity="1" fill="none" stroke-linecap="round" stroke-width="15.6569824" points="1986.453369,934.864258 1975.342285,875.135498 2026.731201,878.569092 2062.147949,915.413330 2014.230957,916.107788" />
				<polygon fill="#FEFEFE" stroke="none" fill-opacity="1" points="2183.744873,773.330078 2209.439209,745.552246 2262.911621,744.857788 2293.004150,872.288330 2308.397461,970.552246 2393.119873,982.357666 2385.480957,1044.163330 2282.703125,1050.413330 2214.647461,1032.589355 2215.342041,910.135620" />
				<polygon stroke="#000000" stroke-opacity="1" fill="none" stroke-linecap="round" stroke-width="15.6569824" points="2183.744873,773.330078 2209.439209,745.552246 2262.911621,744.857788 2293.004150,872.288330 2308.397461,970.552246 2393.119873,982.357666 2385.480957,1044.163330 2282.703125,1050.413330 2214.647461,1032.589355 2215.342041,910.135620" />
				<polygon fill="#FEFEFE" stroke="none" fill-opacity="1" points="2339.230957,794.580078 2401.036377,1001.524414 2435.758789,1009.857788 2551.730957,991.802246 2551.036377,920.274414 2482.286377,934.163330 2454.508545,891.802246 2510.758545,881.385620 2508.675049,825.830078 2426.730713,832.774414 2428.119629,787.635620 2480.897461,777.913330 2458.675049,729.302246 2368.397461,747.357910" />
				<polygon stroke="#000000" stroke-opacity="1" fill="none" stroke-linecap="round" stroke-width="15.6572266" points="2339.230957,794.580078 2401.036377,1001.524414 2435.758789,1009.857788 2551.730957,991.802246 2551.036377,920.274414 2482.286377,934.163330 2454.508545,891.802246 2510.758545,881.385620 2508.675049,825.830078 2426.730713,832.774414 2428.119629,787.635620 2480.897461,777.913330 2458.675049,729.302246 2368.397461,747.357910" />
				<polygon fill="#FEFEFE" stroke="none" fill-opacity="1" points="1596.875732,1170.797729 2050.182373,1142.104248 2479.148926,1083.597778 2554.822266,1132.797729 2009.075684,1179.544434 1479.302490,1218.357666" />
				<polygon stroke="#000000" stroke-opacity="1" fill="none" stroke-linecap="round" stroke-width="15.6567383" points="1596.875732,1170.797729 2050.182373,1142.104248 2479.148926,1083.597778 2554.822266,1132.797729 2009.075684,1179.544434 1479.302490,1218.357666" />
			</g>
		</g>
	</g>
</svg>
